<mxfile host="app.diagrams.net" agent="Mozilla/5.0 (Windows NT 10.0; Win64; x64) AppleWebKit/537.36 (KHTML, like Gecko) Chrome/134.0.0.0 Safari/537.36" version="26.1.1" pages="2">
  <diagram name="Página-1" id="8inS1a0KDeCR9odTabN3">
    <mxGraphModel dx="1050" dy="563" grid="1" gridSize="10" guides="1" tooltips="1" connect="1" arrows="1" fold="1" page="1" pageScale="1" pageWidth="827" pageHeight="1169" math="0" shadow="0">
      <root>
        <mxCell id="0" />
        <mxCell id="1" parent="0" />
        <mxCell id="RZWTrSXgSZB_DrTO7X2_-3" style="edgeStyle=orthogonalEdgeStyle;rounded=0;orthogonalLoop=1;jettySize=auto;html=1;" edge="1" parent="1" source="RZWTrSXgSZB_DrTO7X2_-1" target="RZWTrSXgSZB_DrTO7X2_-4">
          <mxGeometry relative="1" as="geometry">
            <mxPoint x="140" y="200" as="targetPoint" />
          </mxGeometry>
        </mxCell>
        <mxCell id="RZWTrSXgSZB_DrTO7X2_-1" value="Ir para a escola de condução" style="rounded=1;whiteSpace=wrap;html=1;" vertex="1" parent="1">
          <mxGeometry x="80" y="40" width="120" height="60" as="geometry" />
        </mxCell>
        <mxCell id="RZWTrSXgSZB_DrTO7X2_-5" style="edgeStyle=orthogonalEdgeStyle;rounded=0;orthogonalLoop=1;jettySize=auto;html=1;" edge="1" parent="1" source="RZWTrSXgSZB_DrTO7X2_-4" target="RZWTrSXgSZB_DrTO7X2_-6">
          <mxGeometry relative="1" as="geometry">
            <mxPoint x="140" y="300" as="targetPoint" />
          </mxGeometry>
        </mxCell>
        <mxCell id="RZWTrSXgSZB_DrTO7X2_-4" value="Fazer a inscrição" style="rounded=0;whiteSpace=wrap;html=1;" vertex="1" parent="1">
          <mxGeometry x="80" y="170" width="120" height="60" as="geometry" />
        </mxCell>
        <mxCell id="RZWTrSXgSZB_DrTO7X2_-7" style="edgeStyle=orthogonalEdgeStyle;rounded=0;orthogonalLoop=1;jettySize=auto;html=1;" edge="1" parent="1" source="RZWTrSXgSZB_DrTO7X2_-6" target="RZWTrSXgSZB_DrTO7X2_-8">
          <mxGeometry relative="1" as="geometry">
            <mxPoint x="140" y="400" as="targetPoint" />
          </mxGeometry>
        </mxCell>
        <mxCell id="RZWTrSXgSZB_DrTO7X2_-6" value="Estudar para o exame teorico" style="rounded=0;whiteSpace=wrap;html=1;" vertex="1" parent="1">
          <mxGeometry x="80" y="270" width="120" height="60" as="geometry" />
        </mxCell>
        <mxCell id="RZWTrSXgSZB_DrTO7X2_-9" style="edgeStyle=orthogonalEdgeStyle;rounded=0;orthogonalLoop=1;jettySize=auto;html=1;" edge="1" parent="1" source="RZWTrSXgSZB_DrTO7X2_-8" target="RZWTrSXgSZB_DrTO7X2_-10">
          <mxGeometry relative="1" as="geometry">
            <mxPoint x="320" y="400" as="targetPoint" />
          </mxGeometry>
        </mxCell>
        <mxCell id="RZWTrSXgSZB_DrTO7X2_-8" value="Fazer o exame teorico" style="rounded=0;whiteSpace=wrap;html=1;" vertex="1" parent="1">
          <mxGeometry x="80" y="370" width="120" height="60" as="geometry" />
        </mxCell>
        <mxCell id="RZWTrSXgSZB_DrTO7X2_-11" style="edgeStyle=orthogonalEdgeStyle;rounded=0;orthogonalLoop=1;jettySize=auto;html=1;entryX=1;entryY=0.5;entryDx=0;entryDy=0;" edge="1" parent="1" source="RZWTrSXgSZB_DrTO7X2_-10" target="RZWTrSXgSZB_DrTO7X2_-6">
          <mxGeometry relative="1" as="geometry">
            <mxPoint x="355" y="260" as="targetPoint" />
            <Array as="points">
              <mxPoint x="355" y="300" />
            </Array>
          </mxGeometry>
        </mxCell>
        <mxCell id="RZWTrSXgSZB_DrTO7X2_-12" style="edgeStyle=orthogonalEdgeStyle;rounded=0;orthogonalLoop=1;jettySize=auto;html=1;" edge="1" parent="1" source="RZWTrSXgSZB_DrTO7X2_-10" target="RZWTrSXgSZB_DrTO7X2_-13">
          <mxGeometry relative="1" as="geometry">
            <mxPoint x="520" y="400" as="targetPoint" />
          </mxGeometry>
        </mxCell>
        <mxCell id="RZWTrSXgSZB_DrTO7X2_-10" value="Passei no exame&lt;div&gt;teorico?&lt;/div&gt;" style="rhombus;whiteSpace=wrap;html=1;" vertex="1" parent="1">
          <mxGeometry x="280" y="360" width="150" height="80" as="geometry" />
        </mxCell>
        <mxCell id="RZWTrSXgSZB_DrTO7X2_-14" style="edgeStyle=orthogonalEdgeStyle;rounded=0;orthogonalLoop=1;jettySize=auto;html=1;" edge="1" parent="1" source="RZWTrSXgSZB_DrTO7X2_-13" target="RZWTrSXgSZB_DrTO7X2_-15">
          <mxGeometry relative="1" as="geometry">
            <mxPoint x="580" y="280" as="targetPoint" />
          </mxGeometry>
        </mxCell>
        <mxCell id="RZWTrSXgSZB_DrTO7X2_-13" value="Ir para as aulas de condução" style="rounded=0;whiteSpace=wrap;html=1;" vertex="1" parent="1">
          <mxGeometry x="520" y="370" width="120" height="60" as="geometry" />
        </mxCell>
        <mxCell id="RZWTrSXgSZB_DrTO7X2_-18" style="edgeStyle=orthogonalEdgeStyle;rounded=0;orthogonalLoop=1;jettySize=auto;html=1;" edge="1" parent="1" source="RZWTrSXgSZB_DrTO7X2_-15" target="RZWTrSXgSZB_DrTO7X2_-19">
          <mxGeometry relative="1" as="geometry">
            <mxPoint x="580" y="160" as="targetPoint" />
          </mxGeometry>
        </mxCell>
        <mxCell id="RZWTrSXgSZB_DrTO7X2_-15" value="Fazer o exame de Condução" style="rounded=0;whiteSpace=wrap;html=1;" vertex="1" parent="1">
          <mxGeometry x="520" y="250" width="120" height="60" as="geometry" />
        </mxCell>
        <mxCell id="RZWTrSXgSZB_DrTO7X2_-16" value="Não" style="text;html=1;align=center;verticalAlign=middle;whiteSpace=wrap;rounded=0;" vertex="1" parent="1">
          <mxGeometry x="280" y="270" width="60" height="30" as="geometry" />
        </mxCell>
        <mxCell id="RZWTrSXgSZB_DrTO7X2_-17" value="Sim" style="text;html=1;align=center;verticalAlign=middle;whiteSpace=wrap;rounded=0;" vertex="1" parent="1">
          <mxGeometry x="410" y="370" width="60" height="30" as="geometry" />
        </mxCell>
        <mxCell id="RZWTrSXgSZB_DrTO7X2_-19" value="Tirou a carta parabens" style="rounded=1;whiteSpace=wrap;html=1;" vertex="1" parent="1">
          <mxGeometry x="520" y="130" width="120" height="60" as="geometry" />
        </mxCell>
      </root>
    </mxGraphModel>
  </diagram>
  <diagram id="IGg1aMdVlOk5wbNfxi8A" name="Página-2">
    <mxGraphModel dx="1050" dy="563" grid="1" gridSize="10" guides="1" tooltips="1" connect="1" arrows="1" fold="1" page="1" pageScale="1" pageWidth="827" pageHeight="1169" math="0" shadow="0">
      <root>
        <mxCell id="0" />
        <mxCell id="1" parent="0" />
        <mxCell id="nFk7_2vzZUlUCPmTa1QM-2" style="edgeStyle=orthogonalEdgeStyle;rounded=0;orthogonalLoop=1;jettySize=auto;html=1;" edge="1" parent="1" source="nFk7_2vzZUlUCPmTa1QM-1" target="nFk7_2vzZUlUCPmTa1QM-3">
          <mxGeometry relative="1" as="geometry">
            <mxPoint x="400" y="160" as="targetPoint" />
          </mxGeometry>
        </mxCell>
        <mxCell id="nFk7_2vzZUlUCPmTa1QM-1" value="Vamos passear" style="rounded=1;whiteSpace=wrap;html=1;" vertex="1" parent="1">
          <mxGeometry x="340" y="40" width="120" height="60" as="geometry" />
        </mxCell>
        <mxCell id="nFk7_2vzZUlUCPmTa1QM-4" style="edgeStyle=orthogonalEdgeStyle;rounded=0;orthogonalLoop=1;jettySize=auto;html=1;" edge="1" parent="1" source="nFk7_2vzZUlUCPmTa1QM-3" target="nFk7_2vzZUlUCPmTa1QM-5">
          <mxGeometry relative="1" as="geometry">
            <mxPoint x="120" y="280" as="targetPoint" />
          </mxGeometry>
        </mxCell>
        <mxCell id="nFk7_2vzZUlUCPmTa1QM-6" style="edgeStyle=orthogonalEdgeStyle;rounded=0;orthogonalLoop=1;jettySize=auto;html=1;" edge="1" parent="1" source="nFk7_2vzZUlUCPmTa1QM-3" target="nFk7_2vzZUlUCPmTa1QM-7">
          <mxGeometry relative="1" as="geometry">
            <mxPoint x="400" y="320" as="targetPoint" />
          </mxGeometry>
        </mxCell>
        <mxCell id="nFk7_2vzZUlUCPmTa1QM-8" style="edgeStyle=orthogonalEdgeStyle;rounded=0;orthogonalLoop=1;jettySize=auto;html=1;" edge="1" parent="1" source="nFk7_2vzZUlUCPmTa1QM-3" target="nFk7_2vzZUlUCPmTa1QM-9">
          <mxGeometry relative="1" as="geometry">
            <mxPoint x="680" y="280" as="targetPoint" />
          </mxGeometry>
        </mxCell>
        <mxCell id="nFk7_2vzZUlUCPmTa1QM-3" value="Que temperatura é&lt;div&gt;que&amp;nbsp;&lt;span style=&quot;background-color: transparent; color: light-dark(rgb(0, 0, 0), rgb(255, 255, 255));&quot;&gt;esta na rua?&lt;/span&gt;&lt;/div&gt;" style="rhombus;whiteSpace=wrap;html=1;" vertex="1" parent="1">
          <mxGeometry x="315" y="160" width="170" height="80" as="geometry" />
        </mxCell>
        <mxCell id="nFk7_2vzZUlUCPmTa1QM-16" style="edgeStyle=orthogonalEdgeStyle;rounded=0;orthogonalLoop=1;jettySize=auto;html=1;entryX=0;entryY=0.5;entryDx=0;entryDy=0;" edge="1" parent="1" source="nFk7_2vzZUlUCPmTa1QM-5" target="nFk7_2vzZUlUCPmTa1QM-13">
          <mxGeometry relative="1" as="geometry">
            <Array as="points">
              <mxPoint x="120" y="470" />
            </Array>
          </mxGeometry>
        </mxCell>
        <mxCell id="nFk7_2vzZUlUCPmTa1QM-5" value="Roupa de inverno" style="rounded=0;whiteSpace=wrap;html=1;" vertex="1" parent="1">
          <mxGeometry x="60" y="290" width="120" height="60" as="geometry" />
        </mxCell>
        <mxCell id="nFk7_2vzZUlUCPmTa1QM-15" style="edgeStyle=orthogonalEdgeStyle;rounded=0;orthogonalLoop=1;jettySize=auto;html=1;entryX=0.5;entryY=0;entryDx=0;entryDy=0;" edge="1" parent="1" source="nFk7_2vzZUlUCPmTa1QM-7" target="nFk7_2vzZUlUCPmTa1QM-13">
          <mxGeometry relative="1" as="geometry" />
        </mxCell>
        <mxCell id="nFk7_2vzZUlUCPmTa1QM-7" value="Roupa mais leve" style="rounded=0;whiteSpace=wrap;html=1;" vertex="1" parent="1">
          <mxGeometry x="340" y="290" width="120" height="60" as="geometry" />
        </mxCell>
        <mxCell id="nFk7_2vzZUlUCPmTa1QM-14" style="edgeStyle=orthogonalEdgeStyle;rounded=0;orthogonalLoop=1;jettySize=auto;html=1;" edge="1" parent="1" source="nFk7_2vzZUlUCPmTa1QM-9" target="nFk7_2vzZUlUCPmTa1QM-13">
          <mxGeometry relative="1" as="geometry">
            <Array as="points">
              <mxPoint x="680" y="470" />
            </Array>
          </mxGeometry>
        </mxCell>
        <mxCell id="nFk7_2vzZUlUCPmTa1QM-9" value="Roupa de verão" style="rounded=0;whiteSpace=wrap;html=1;" vertex="1" parent="1">
          <mxGeometry x="620" y="290" width="120" height="60" as="geometry" />
        </mxCell>
        <mxCell id="nFk7_2vzZUlUCPmTa1QM-10" value="Temp &amp;lt;=15" style="text;html=1;align=center;verticalAlign=middle;whiteSpace=wrap;rounded=0;" vertex="1" parent="1">
          <mxGeometry x="210" y="170" width="90" height="30" as="geometry" />
        </mxCell>
        <mxCell id="nFk7_2vzZUlUCPmTa1QM-11" value="Temp &amp;gt;15 e &amp;lt;25" style="text;html=1;align=center;verticalAlign=middle;whiteSpace=wrap;rounded=0;" vertex="1" parent="1">
          <mxGeometry x="400" y="250" width="110" height="30" as="geometry" />
        </mxCell>
        <mxCell id="nFk7_2vzZUlUCPmTa1QM-12" value="Temp &amp;gt;=25" style="text;html=1;align=center;verticalAlign=middle;whiteSpace=wrap;rounded=0;" vertex="1" parent="1">
          <mxGeometry x="530" y="170" width="90" height="30" as="geometry" />
        </mxCell>
        <mxCell id="nFk7_2vzZUlUCPmTa1QM-17" style="edgeStyle=orthogonalEdgeStyle;rounded=0;orthogonalLoop=1;jettySize=auto;html=1;" edge="1" parent="1" source="nFk7_2vzZUlUCPmTa1QM-13" target="nFk7_2vzZUlUCPmTa1QM-18">
          <mxGeometry relative="1" as="geometry">
            <mxPoint x="400" y="630" as="targetPoint" />
          </mxGeometry>
        </mxCell>
        <mxCell id="nFk7_2vzZUlUCPmTa1QM-13" value="Sair de casa" style="rounded=0;whiteSpace=wrap;html=1;" vertex="1" parent="1">
          <mxGeometry x="340" y="440" width="120" height="60" as="geometry" />
        </mxCell>
        <mxCell id="nFk7_2vzZUlUCPmTa1QM-20" style="edgeStyle=orthogonalEdgeStyle;rounded=0;orthogonalLoop=1;jettySize=auto;html=1;" edge="1" parent="1" source="nFk7_2vzZUlUCPmTa1QM-18" target="nFk7_2vzZUlUCPmTa1QM-23">
          <mxGeometry relative="1" as="geometry">
            <mxPoint x="150" y="630" as="targetPoint" />
          </mxGeometry>
        </mxCell>
        <mxCell id="nFk7_2vzZUlUCPmTa1QM-21" style="edgeStyle=orthogonalEdgeStyle;rounded=0;orthogonalLoop=1;jettySize=auto;html=1;" edge="1" parent="1" source="nFk7_2vzZUlUCPmTa1QM-18" target="nFk7_2vzZUlUCPmTa1QM-22">
          <mxGeometry relative="1" as="geometry">
            <mxPoint x="650" y="630" as="targetPoint" />
          </mxGeometry>
        </mxCell>
        <mxCell id="nFk7_2vzZUlUCPmTa1QM-18" value="Ir passear onde" style="rhombus;whiteSpace=wrap;html=1;" vertex="1" parent="1">
          <mxGeometry x="335" y="590" width="130" height="80" as="geometry" />
        </mxCell>
        <mxCell id="nFk7_2vzZUlUCPmTa1QM-28" style="edgeStyle=orthogonalEdgeStyle;rounded=0;orthogonalLoop=1;jettySize=auto;html=1;entryX=1;entryY=0.5;entryDx=0;entryDy=0;" edge="1" parent="1" source="nFk7_2vzZUlUCPmTa1QM-22" target="nFk7_2vzZUlUCPmTa1QM-27">
          <mxGeometry relative="1" as="geometry">
            <Array as="points">
              <mxPoint x="650" y="790" />
            </Array>
          </mxGeometry>
        </mxCell>
        <mxCell id="nFk7_2vzZUlUCPmTa1QM-22" value="Para a praia" style="rounded=0;whiteSpace=wrap;html=1;" vertex="1" parent="1">
          <mxGeometry x="590" y="600" width="120" height="60" as="geometry" />
        </mxCell>
        <mxCell id="nFk7_2vzZUlUCPmTa1QM-29" style="edgeStyle=orthogonalEdgeStyle;rounded=0;orthogonalLoop=1;jettySize=auto;html=1;entryX=0;entryY=0.5;entryDx=0;entryDy=0;" edge="1" parent="1" source="nFk7_2vzZUlUCPmTa1QM-23" target="nFk7_2vzZUlUCPmTa1QM-27">
          <mxGeometry relative="1" as="geometry">
            <Array as="points">
              <mxPoint x="150" y="790" />
            </Array>
          </mxGeometry>
        </mxCell>
        <mxCell id="nFk7_2vzZUlUCPmTa1QM-23" value="Para o centro da cidade" style="rounded=0;whiteSpace=wrap;html=1;" vertex="1" parent="1">
          <mxGeometry x="90" y="600" width="120" height="60" as="geometry" />
        </mxCell>
        <mxCell id="nFk7_2vzZUlUCPmTa1QM-24" value="Roupa de inverno ou mais leve" style="text;html=1;align=center;verticalAlign=middle;whiteSpace=wrap;rounded=0;" vertex="1" parent="1">
          <mxGeometry x="240" y="585" width="110" height="30" as="geometry" />
        </mxCell>
        <mxCell id="nFk7_2vzZUlUCPmTa1QM-25" value="Roupa de veão" style="text;html=1;align=center;verticalAlign=middle;whiteSpace=wrap;rounded=0;" vertex="1" parent="1">
          <mxGeometry x="490" y="600" width="60" height="30" as="geometry" />
        </mxCell>
        <mxCell id="nFk7_2vzZUlUCPmTa1QM-27" value="Passeio feito 👍" style="rounded=1;whiteSpace=wrap;html=1;" vertex="1" parent="1">
          <mxGeometry x="345" y="760" width="120" height="60" as="geometry" />
        </mxCell>
      </root>
    </mxGraphModel>
  </diagram>
</mxfile>
